<?xml version="1.0" encoding="UTF-8"?>
<svg xmlns="http://www.w3.org/2000/svg" xmlns:xlink="http://www.w3.org/1999/xlink" width="120px" height="33px" viewBox="0 0 118 33" version="1.1">
<g id="surface1">
<path style=" stroke:none;fill-rule:nonzero;fill:rgb(0%,0%,0%);fill-opacity:1;" d="M 2.429688 11.085938 C 2.5625 10.296875 3.046875 9.742188 3.636719 9.222656 C 6.425781 6.746094 9.1875 4.246094 11.945312 1.738281 C 12.855469 0.917969 13.96875 0.6875 15.042969 1.164062 C 16.574219 1.851562 16.894531 3.644531 15.652344 4.777344 C 14.195312 6.121094 12.710938 7.441406 11.230469 8.765625 C 10.324219 9.578125 9.421875 10.398438 8.492188 11.242188 C 10.074219 12.667969 11.625 14.0625 13.175781 15.46875 C 13.90625 16.125 14.632812 16.792969 15.375 17.4375 C 16.449219 18.382812 16.707031 19.40625 16.109375 20.402344 C 15.53125 21.394531 14.1875 21.890625 13.039062 21.382812 C 12.367188 21.089844 11.78125 20.558594 11.222656 20.070312 C 8.648438 17.800781 6.105469 15.488281 3.554688 13.199219 C 3.027344 12.730469 2.605469 12.210938 2.4375 11.503906 C 2.429688 11.367188 2.429688 11.234375 2.429688 11.085938 Z M 2.429688 11.085938 "/>
<path style=" stroke:none;fill-rule:nonzero;fill:rgb(0%,0%,0%);fill-opacity:1;" d="M 23.042969 19.425781 C 21.503906 18.03125 20.023438 16.707031 18.546875 15.375 C 17.679688 14.585938 16.800781 13.804688 15.933594 13.011719 C 15.242188 12.398438 14.929688 11.660156 15.210938 10.734375 C 15.5 9.753906 16.222656 9.277344 17.171875 9.121094 C 18.011719 8.984375 18.773438 9.203125 19.414062 9.785156 C 22.390625 12.472656 25.378906 15.148438 28.34375 17.832031 C 29.324219 18.726562 29.3125 20.121094 28.3125 21.027344 C 26.75 22.453125 25.179688 23.847656 23.621094 25.265625 C 22.195312 26.546875 20.777344 27.835938 19.332031 29.097656 C 18.195312 30.085938 16.386719 29.917969 15.550781 28.792969 C 14.847656 27.835938 14.972656 26.671875 15.871094 25.859375 C 18.164062 23.785156 20.46875 21.714844 22.761719 19.652344 C 22.847656 19.582031 22.929688 19.519531 23.042969 19.425781 Z M 23.042969 19.425781 "/>
<path style="fill-rule:nonzero;fill:rgb(0%,0%,0%);fill-opacity:1;stroke-width:4;stroke-linecap:butt;stroke-linejoin:miter;stroke:rgb(0%,0%,0%);stroke-opacity:1;stroke-miterlimit:10;" d="M 435.597497 69.906605 C 435.597497 78.799716 436.61822 88.893584 438.697471 100.300781 L 437.298702 100.300781 C 427.3183 85.403883 412.687937 78.011719 393.483223 78.011719 C 375.185818 78.011719 360.895697 84.991122 350.499444 98.912405 C 340.103191 112.796165 334.886163 132.308475 334.886163 157.299242 C 334.886163 181.914773 339.989778 201.201941 350.197007 215.085701 C 360.404237 229.006984 374.505336 235.986387 392.386891 235.986387 C 411.818432 235.986387 426.184163 228.481652 435.597497 213.509706 L 437.412116 213.509706 L 445.388877 233.284683 L 477.295922 233.284683 L 477.295922 21.088305 L 435.597497 21.088305 Z M 438.508448 162.102273 C 438.016989 176.8866 435.295061 187.393229 430.418273 193.584635 C 425.390267 199.813565 417.715943 202.890507 407.017254 202.890507 C 397.414897 202.890507 390.005204 199.213187 384.788175 191.708452 C 379.608951 184.203717 377.000437 172.984138 377.000437 158.012192 C 377.000437 143.002723 379.608951 131.595526 384.712566 123.715554 C 389.816181 115.798059 396.999047 111.895597 406.298967 111.895597 C 417.715943 111.895597 425.881727 115.385298 430.909733 122.514796 C 435.899934 129.606771 438.508448 141.314157 438.508448 157.712003 Z M 438.508448 162.102273 " transform="matrix(0.103327,0,0,0.104101,0.0103327,0)"/>
<path style="fill-rule:nonzero;fill:rgb(0%,0%,0%);fill-opacity:1;stroke-width:4;stroke-linecap:butt;stroke-linejoin:miter;stroke:rgb(0%,0%,0%);stroke-opacity:1;stroke-miterlimit:10;" d="M 569.803668 85.816643 C 561.789102 90.99491 555.400132 97.899266 550.712368 106.41714 L 548.708726 106.41714 L 542.584388 80.788471 L 511.017585 80.788471 L 511.017585 233.209635 L 552.602595 233.209635 L 552.602595 155.610677 C 552.602595 143.302912 556.307442 133.809422 563.717135 127.017637 C 571.089023 120.188329 581.409666 116.811198 594.71687 116.811198 C 599.518048 116.811198 603.60094 117.299006 607.00335 118.199574 L 610.103324 79.212476 C 606.398477 78.386955 601.710712 78.011719 596.115638 78.011719 C 586.58889 78.011719 577.893843 80.600852 569.803668 85.816643 Z M 569.803668 85.816643 " transform="matrix(0.103327,0,0,0.104101,0.0103327,0)"/>
<path style="fill-rule:nonzero;fill:rgb(0%,0%,0%);fill-opacity:1;stroke-width:4;stroke-linecap:butt;stroke-linejoin:miter;stroke:rgb(0%,0%,0%);stroke-opacity:1;stroke-miterlimit:10;" d="M 737.504674 90.99491 C 726.616962 82.101799 710.890267 77.598958 690.513612 77.598958 C 669.116234 77.598958 649.684693 82.21437 632.181184 91.40767 L 646.017651 119.512902 C 662.387023 112.083215 676.790559 108.518466 688.888016 108.518466 C 704.69032 108.518466 712.591472 116.210819 712.591472 131.708097 L 712.591472 138.387311 L 686.203893 139.212831 C 663.407746 140.000829 646.282283 144.316051 635.016525 151.895833 C 623.712963 159.588187 618.004476 171.483191 618.004476 187.693419 C 618.004476 203.115649 622.200781 215.085701 630.593392 223.415956 C 638.986004 231.783736 650.516393 235.91134 665.18456 235.91134 C 677.092995 235.91134 686.808766 234.185251 694.218459 230.80812 C 701.590347 227.393466 708.811017 221.314631 715.80486 212.496567 L 716.901192 212.496567 L 724.915757 233.209635 L 753.911851 233.209635 L 753.911851 131.708097 C 753.798437 113.509115 748.392386 100.000592 737.504674 90.99491 Z M 712.515863 175.085464 C 712.515863 184.316288 709.604913 191.595881 703.783011 197.186908 C 697.998914 202.702888 690.286785 205.517164 680.684428 205.517164 C 667.301615 205.517164 660.496796 199.588423 660.496796 187.918561 C 660.496796 179.700876 663.483355 173.584517 669.418671 169.607008 C 675.316181 165.591974 684.313665 163.415601 696.411123 163.115412 L 712.515863 162.59008 Z M 712.515863 175.085464 " transform="matrix(0.103327,0,0,0.104101,0.0103327,0)"/>
<path style="fill-rule:nonzero;fill:rgb(0%,0%,0%);fill-opacity:1;stroke-width:4;stroke-linecap:butt;stroke-linejoin:miter;stroke:rgb(0%,0%,0%);stroke-opacity:1;stroke-miterlimit:10;" d="M 855.114645 79.099905 C 849.217135 78.311908 844.189129 77.899148 839.917214 77.899148 C 819.805191 77.899148 804.418737 82.401989 793.606634 91.482718 C 782.794531 100.600971 777.38848 113.396544 777.38848 130.094579 C 777.38848 140.488636 779.694558 149.494318 784.382323 157.111624 C 789.107892 164.691406 795.383448 170.282434 803.398014 173.697088 C 797.009044 177.411932 792.207865 181.201823 788.805456 185.104285 C 785.403046 189.006747 783.815254 193.809777 783.815254 199.588423 C 783.815254 204.203835 785.403046 208.594105 788.616433 212.796757 C 791.792015 216.886837 795.496862 219.888731 799.806581 221.689867 C 788.692042 224.316525 780.299431 228.706795 774.590943 234.898201 C 768.882455 241.089607 766.009309 248.78196 766.009309 257.900213 C 766.009309 271.296165 771.604383 281.615175 782.794531 289.007339 C 793.98468 296.399503 810.316247 300.114347 831.486798 300.114347 C 859.310951 300.114347 880.594915 295.198745 895.48991 285.405066 C 910.384905 275.611387 917.794597 261.802675 917.794597 244.016454 C 917.794597 230.09517 913.409269 219.588542 904.600808 212.383996 C 895.792346 205.216974 883.090016 201.614702 866.418207 201.614702 L 840.484282 201.614702 C 825.211242 201.614702 817.612526 198.612808 817.612526 192.60902 C 817.612526 188.593987 819.691777 184.991714 824.001496 181.689631 L 830.08803 182.40258 L 837.611136 182.815341 C 857.912182 182.815341 873.714486 178.199929 885.093657 169.081676 C 896.510633 160.000947 902.181316 147.205374 902.181316 130.882576 C 902.181316 122.402225 899.988652 114.78492 895.716737 107.993134 L 919.609216 101.914299 L 919.609216 80.788471 L 866.418207 80.788471 C 864.717002 80.488281 860.898742 79.887902 855.114645 79.099905 Z M 828.689261 235.085819 L 850.200053 235.085819 C 860.596306 235.085819 868.384044 236.211529 873.41205 238.387902 C 878.402251 240.601799 880.897352 244.504261 880.897352 250.282907 C 880.897352 257.412405 876.701046 263.003433 868.195021 267.093513 C 859.688996 271.183594 848.082998 273.209872 833.188003 273.209872 C 823.28321 273.209872 815.608885 271.596354 810.08942 268.294271 C 804.60776 264.992188 801.885832 260.489347 801.885832 254.785748 C 801.885832 248.894531 804.494346 244.091501 809.597961 240.601799 C 814.701576 236.886955 821.090546 235.085819 828.689261 235.085819 Z M 857.004873 150.282315 C 853.41344 155.085346 847.591539 157.486861 839.8038 157.486861 C 832.091671 157.486861 826.307574 155.085346 822.602728 150.282315 C 818.784468 145.516809 816.89424 138.912642 816.89424 130.694957 C 816.89424 112.308357 824.492956 103.190104 839.8038 103.190104 C 854.887818 103.190104 862.410924 112.383404 862.410924 130.694957 C 862.486533 138.987689 860.709719 145.516809 857.004873 150.282315 Z M 857.004873 150.282315 " transform="matrix(0.103327,0,0,0.104101,0.0103327,0)"/>
<path style="fill-rule:nonzero;fill:rgb(0%,0%,0%);fill-opacity:1;stroke-width:4;stroke-linecap:butt;stroke-linejoin:miter;stroke:rgb(0%,0%,0%);stroke-opacity:1;stroke-miterlimit:10;" d="M 1064.287248 114.897491 C 1058.314129 103.002486 1049.69469 93.884233 1038.504542 87.505208 C 1027.314394 81.08866 1014.385236 78.011719 999.792677 78.011719 C 976.316049 78.011719 958.018644 84.916075 945.013877 98.687263 C 932.00911 112.495975 925.506727 131.895715 925.506727 156.811435 C 925.506727 172.79652 928.493287 186.79285 934.504211 198.800426 C 940.515135 210.808002 949.096769 220.001302 960.286917 226.41785 C 971.51487 232.796875 984.406224 235.986387 998.998782 235.986387 C 1022.399801 235.986387 1040.583792 229.006984 1053.701973 215.010653 C 1066.782349 201.014323 1073.284733 181.614583 1073.284733 156.811435 C 1073.284733 140.788826 1070.298173 126.792495 1064.287248 114.897491 Z M 1023.38272 190.995502 C 1018.505932 198.687855 1010.60478 202.51527 999.490241 202.51527 C 988.300093 202.51527 980.285527 198.612808 975.295326 190.882931 C 970.305124 183.190578 967.885633 171.783381 967.885633 156.698864 C 967.885633 141.501776 970.418538 130.20715 975.295326 122.702415 C 980.209918 115.19768 988.186679 111.482836 999.301218 111.482836 C 1010.491367 111.482836 1018.505932 115.310251 1023.38272 122.814986 C 1028.297312 130.282197 1030.792413 141.689394 1030.792413 156.698864 C 1030.716803 171.895952 1028.297312 183.303149 1023.38272 190.995502 Z M 1023.38272 190.995502 " transform="matrix(0.103327,0,0,0.104101,0.0103327,0)"/>
</g>
</svg>
