<?xml version="1.0" encoding="utf-8"?>
<!-- Generator: Adobe Illustrator 24.2.3, SVG Export Plug-In . SVG Version: 6.00 Build 0)  -->
<svg version="1.1" id="Layer_1" xmlns="http://www.w3.org/2000/svg" xmlns:xlink="http://www.w3.org/1999/xlink" x="0px" y="0px"
	 viewBox="0 0 1141.8 317" style="enable-background:new 0 0 1141.8 317;" xml:space="preserve">
<style type="text/css">
	.st0{stroke:#000000;stroke-width:4;stroke-miterlimit:10;}
</style>
<g>
	<path d="M23.4,106.5c1.3-7.6,6-12.9,11.7-17.9c27-23.8,53.7-47.8,80.4-71.9c8.8-7.9,19.6-10.1,30-5.5c14.8,6.6,17.9,23.8,5.9,34.7
		c-14.1,12.9-28.5,25.6-42.8,38.3c-8.8,7.8-17.5,15.7-26.5,23.8c15.3,13.7,30.3,27.1,45.3,40.6c7.1,6.3,14.1,12.7,21.3,18.9
		c10.4,9.1,12.9,18.9,7.1,28.5c-5.6,9.5-18.6,14.3-29.7,9.4c-6.5-2.8-12.2-7.9-17.6-12.6C83.6,171,59,148.8,34.3,126.8
		c-5.1-4.5-9.2-9.5-10.8-16.3C23.4,109.2,23.4,107.9,23.4,106.5z"/>
	<path d="M222.9,186.6c-14.9-13.4-29.2-26.1-43.5-38.9c-8.4-7.6-16.9-15.1-25.3-22.7c-6.7-5.9-9.7-13-7-21.9c2.8-9.4,9.8-14,19-15.5
		c8.1-1.3,15.5,0.8,21.7,6.4c28.8,25.8,57.7,51.5,86.4,77.3c9.5,8.6,9.4,22-0.3,30.7c-15.1,13.7-30.3,27.1-45.4,40.7
		C214.7,255,201,267.4,187,279.5c-11,9.5-28.5,7.9-36.6-2.9c-6.8-9.2-5.6-20.4,3.1-28.2c22.2-19.9,44.5-39.8,66.7-59.6
		C221,188.1,221.8,187.5,222.9,186.6z"/>
</g>
<g>
	<path class="st0" d="M435.6,69.9c0,8.9,1,19,3.1,30.4h-1.4C427.3,85.4,412.7,78,393.5,78c-18.3,0-32.6,7-43,20.9
		c-10.4,13.9-15.6,33.4-15.6,58.4c0,24.6,5.1,43.9,15.3,57.8s24.3,20.9,42.2,20.9c19.4,0,33.8-7.5,43.2-22.5h1.8l8,19.8h31.9V21.1
		h-41.7V69.9z M438.5,162.1c-0.5,14.8-3.2,25.3-8.1,31.5c-5,6.2-12.7,9.3-23.4,9.3c-9.6,0-17-3.7-22.2-11.2
		c-5.2-7.5-7.8-18.7-7.8-33.7s2.6-26.4,7.7-34.3c5.1-7.9,12.3-11.8,21.6-11.8c11.4,0,19.6,3.5,24.6,10.6c5,7.1,7.6,18.8,7.6,35.2
		V162.1z"/>
	<path class="st0" d="M569.8,85.8c-8,5.2-14.4,12.1-19.1,20.6h-2l-6.1-25.6H511v152.4h41.6v-77.6c0-12.3,3.7-21.8,11.1-28.6
		c7.4-6.8,17.7-10.2,31-10.2c4.8,0,8.9,0.5,12.3,1.4l3.1-39c-3.7-0.8-8.4-1.2-14-1.2C586.6,78,577.9,80.6,569.8,85.8z"/>
	<path class="st0" d="M737.5,91c-10.9-8.9-26.6-13.4-47-13.4c-21.4,0-40.8,4.6-58.3,13.8l13.8,28.1c16.4-7.4,30.8-11,42.9-11
		c15.8,0,23.7,7.7,23.7,23.2v6.7l-26.4,0.8c-22.8,0.8-39.9,5.1-51.2,12.7c-11.3,7.7-17,19.6-17,35.8c0,15.4,4.2,27.4,12.6,35.7
		c8.4,8.4,19.9,12.5,34.6,12.5c11.9,0,21.6-1.7,29-5.1c7.4-3.4,14.6-9.5,21.6-18.3h1.1l8,20.7h29V131.7
		C753.8,113.5,748.4,100,737.5,91z M712.5,175.1c0,9.2-2.9,16.5-8.7,22.1c-5.8,5.5-13.5,8.3-23.1,8.3c-13.4,0-20.2-5.9-20.2-17.6
		c0-8.2,3-14.3,8.9-18.3c5.9-4,14.9-6.2,27-6.5l16.1-0.5V175.1z"/>
	<path class="st0" d="M855.1,79.1c-5.9-0.8-10.9-1.2-15.2-1.2c-20.1,0-35.5,4.5-46.3,13.6c-10.8,9.1-16.2,21.9-16.2,38.6
		c0,10.4,2.3,19.4,7,27c4.7,7.6,11,13.2,19,16.6c-6.4,3.7-11.2,7.5-14.6,11.4c-3.4,3.9-5,8.7-5,14.5c0,4.6,1.6,9,4.8,13.2
		c3.2,4.1,6.9,7.1,11.2,8.9c-11.1,2.6-19.5,7-25.2,13.2c-5.7,6.2-8.6,13.9-8.6,23c0,13.4,5.6,23.7,16.8,31.1
		c11.2,7.4,27.5,11.1,48.7,11.1c27.8,0,49.1-4.9,64-14.7c14.9-9.8,22.3-23.6,22.3-41.4c0-13.9-4.4-24.4-13.2-31.6
		c-8.8-7.2-21.5-10.8-38.2-10.8h-25.9c-15.3,0-22.9-3-22.9-9c0-4,2.1-7.6,6.4-10.9l6.1,0.7l7.5,0.4c20.3,0,36.1-4.6,47.5-13.7
		c11.4-9.1,17.1-21.9,17.1-38.2c0-8.5-2.2-16.1-6.5-22.9l23.9-6.1V80.8h-53.2C864.7,80.5,860.9,79.9,855.1,79.1z M828.7,235.1h21.5
		c10.4,0,18.2,1.1,23.2,3.3c5,2.2,7.5,6.1,7.5,11.9c0,7.1-4.2,12.7-12.7,16.8c-8.5,4.1-20.1,6.1-35,6.1c-9.9,0-17.6-1.6-23.1-4.9
		c-5.5-3.3-8.2-7.8-8.2-13.5c0-5.9,2.6-10.7,7.7-14.2C814.7,236.9,821.1,235.1,828.7,235.1z M857,150.3c-3.6,4.8-9.4,7.2-17.2,7.2
		c-7.7,0-13.5-2.4-17.2-7.2c-3.8-4.8-5.7-11.4-5.7-19.6c0-18.4,7.6-27.5,22.9-27.5c15.1,0,22.6,9.2,22.6,27.5
		C862.5,139,860.7,145.5,857,150.3z"/>
	<path class="st0" d="M1064.3,114.9c-6-11.9-14.6-21-25.8-27.4c-11.2-6.4-24.1-9.5-38.7-9.5c-23.5,0-41.8,6.9-54.8,20.7
		c-13,13.8-19.5,33.2-19.5,58.1c0,16,3,30,9,42c6,12,14.6,21.2,25.8,27.6s24.1,9.6,38.7,9.6c23.4,0,41.6-7,54.7-21
		c13.1-14,19.6-33.4,19.6-58.2C1073.3,140.8,1070.3,126.8,1064.3,114.9z M1023.4,191c-4.9,7.7-12.8,11.5-23.9,11.5
		c-11.2,0-19.2-3.9-24.2-11.6c-5-7.7-7.4-19.1-7.4-34.2c0-15.2,2.5-26.5,7.4-34s12.9-11.2,24-11.2c11.2,0,19.2,3.8,24.1,11.3
		c4.9,7.5,7.4,18.9,7.4,33.9C1030.7,171.9,1028.3,183.3,1023.4,191z"/>
</g>
</svg>
